<?xml version="1.0" encoding="UTF-8" standalone="no"?>
<svg
   xmlns:svg="http://www.w3.org/2000/svg"
   xmlns="http://www.w3.org/2000/svg"
   version="1.1"
   id="u10sil-logotype-svg"
   viewBox="0 0 170.07874 70.866138"
   height="20mm"
   width="48mm">
  <path
     d="m 87.0256,38.58446 c 0,1.32231 -0.4622,2.46661 -1.387,3.43293 -0.8671,0.96631 -2.023,1.44945 -3.4679,1.44945 -1.5026,0 -2.7164,-0.48314 -3.6414,-1.44945 -0.9248,-0.96632 -1.387,-2.11062 -1.387,-3.43293 0,-1.3223 0.4622,-2.49206 1.387,-3.50922 0.925,-1.01715 2.1388,-1.52575 3.6414,-1.52575 1.4449,0 2.6008,0.5086 3.4679,1.52575 0.9248,1.01716 1.387,2.18692 1.387,3.50922 z M 82.0839,23.50605 c -3.4264,0 -6.1351,1.34278 -8.1261,4.02835 -1.9911,2.66241 -2.9866,6.32033 -2.9866,10.97375 0,4.65343 0.984,8.32293 2.9519,11.0085 1.991,2.66242 4.7113,3.99363 8.1608,3.99363 3.4033,0 6.1005,-1.34279 8.0914,-4.02836 1.991,-2.68556 2.9865,-6.34348 2.9865,-10.97377 0,-4.60713 -0.9955,-8.25347 -2.9865,-10.93904 -1.9909,-2.70871 -4.6881,-4.06306 -8.0914,-4.06306 z m 0,-5.41742 c 5.5564,0 9.9204,1.80581 13.092,5.41742 3.1717,3.61162 4.7576,8.61232 4.7576,15.0021 0,6.36665 -1.5859,11.36736 -4.7576,15.00213 -3.1716,3.61161 -7.5356,5.41742 -13.092,5.41742 -5.5795,0 -9.9551,-1.80581 -13.1269,-5.41742 -3.1485,-3.63477 -4.7228,-8.63548 -4.7228,-15.00213 0,-6.38978 1.5743,-11.39048 4.7228,-15.0021 3.1718,-3.61161 7.5474,-5.41742 13.1269,-5.41742 z m 46.5525,-6.38756 0,6.18716 6.2505,0 0,-6.18716 z m 8.6345,0 0,6.18716 c 2.0934,0 4.1868,0 6.2802,0 l 0,7.72558 0,7.14447 0,10.09467 c 0,2.39032 0.1772,4.50155 0.5327,6.33245 0.356,1.78003 0.9683,3.27915 1.8328,4.49974 0.9154,1.2206 2.1084,2.13873 3.5833,2.74903 1.4749,0.6103 3.3312,0.91634 5.5688,0.91634 0.9664,0 1.8845,-0.0784 2.7491,-0.23095 0.9154,-0.15258 1.7279,-0.32922 2.4398,-0.53266 0.7629,-0.20344 1.4224,-0.40747 1.9818,-0.61091 0.5593,-0.25429 0.9948,-0.45831 1.2999,-0.61089 l -0.9164,-5.3416 c -0.7121,0.40687 -1.7046,0.79128 -2.9762,1.14729 -1.2205,0.35607 -2.5669,0.53268 -4.0418,0.53268 -1.9325,0 -3.3843,-0.58473 -4.3505,-1.75446 -0.9664,-1.2206 -1.4491,-3.58685 -1.4491,-7.09606 l 0,-10.09467 0,-12.48607 0,-8.57114 z m -123.7468,8.57114 0,20.82628 c 0.021,2.47756 0.2278,4.57992 0.6855,6.56339 0.4576,1.98347 1.2462,3.71027 2.3653,5.18515 1.1189,1.42404 2.567,2.54245 4.347,3.35618 1.78,0.76288 4.017,1.1473 6.7123,1.1473 l 16.4641,0 0,-37.0783 -6.2653,0 0,31.7367 -9.6176,0 c -3.0515,0 -5.2244,-1.13332 -6.5299,-2.97624 -1.2884,-1.81901 -1.9072,-4.93118 -1.9072,-9.30497 l 0,-19.45549 z m 32.9581,0 0,5.3416 7.9342,0 0,26.3951 -6.7533,0 0,5.3416 21.9401,0 c -0.8715,-0.67623 -1.6986,-1.41634 -2.4438,-2.26477 l 0,-0.007 0,-0.004 C 66.3429,54.13221 65.638,53.1009 65.0138,52.00908 l -4.3432,0 0,-31.7367 -14.1885,0 z m 67.6455,0 c -4.315,0 -7.4972,0.96542 -9.5434,2.89802 -2.0017,1.88176 -3.0023,4.248 -3.0023,7.09605 0,2.03434 0.444,3.68647 1.3335,4.95793 0.9342,1.27146 2.0701,2.3389 3.4046,3.20347 1.379,0.86459 2.8685,1.60234 4.47,2.21264 1.6012,0.55943 3.0685,1.14416 4.4029,1.75446 1.3791,0.61029 2.515,1.32438 3.4045,2.13812 0.9342,0.81374 1.4006,1.85751 1.4006,3.12898 0,2.89891 -2.5129,4.34703 -7.5393,4.34703 l -13.3316,0 c -0.629,1.09311 -1.3412,2.12612 -2.1643,3.06937 l 0,0.004 0,0.004 c -0.7447,0.84799 -1.5695,1.58868 -2.4398,2.26478 l 18.8818,0 0,-0.0335 c 4.3533,-0.0834 7.6047,-0.92142 9.6738,-2.56278 2.1798,-1.78003 3.2705,-4.27194 3.2705,-7.476 0,-1.98347 -0.4702,-3.61197 -1.4043,-4.88343 -0.8897,-1.32231 -2.0218,-2.44076 -3.4009,-3.35621 -1.3791,-0.91544 -2.8687,-1.67683 -4.4701,-2.28712 -1.6014,-0.66117 -3.0907,-1.29689 -4.4697,-1.90719 -1.3792,-0.61029 -2.5376,-1.27339 -3.4716,-1.98539 -0.8895,-0.76287 -1.3338,-1.67727 -1.3338,-2.74529 0,-3.00063 2.4,-4.49978 7.2041,-4.49978 l 13.6372,0 0,17.23914 c 0,2.39033 0.1773,4.50156 0.5327,6.33246 0.3561,1.78002 0.968,3.27915 1.8325,4.49974 0.9155,1.2206 2.1087,2.13873 3.5836,2.74903 1.4747,0.6103 3.331,0.91634 5.5686,0.91634 0.9664,0 1.8845,-0.0784 2.7491,-0.23095 0.9155,-0.15258 1.728,-0.32922 2.4399,-0.53266 0.019,-0.002 0.019,-0.006 0.027,-0.007 -0.4937,-0.44988 -0.9605,-0.92676 -1.3632,-1.46391 l -0.023,-0.0224 -0.023,-0.0297 c -0.7281,-1.02816 -1.2779,-2.1965 -1.6948,-3.4605 -0.5137,0.0492 -1.0266,0.10051 -1.5756,0.10051 -1.9325,0 -3.3845,-0.58473 -4.3509,-1.75446 -0.9663,-1.22059 -1.4489,-3.58686 -1.4489,-7.09607 l 0,-22.58073 -7.7368,0 -13.0299,0 z"
     style="fill:#000000;fill-opacity:1;stroke:none"
     id="u10sil-logotype" />
</svg>
