<?xml version="1.0" encoding="UTF-8" standalone="no"?>
<svg
   xmlns:svg="http://www.w3.org/2000/svg"
   xmlns="http://www.w3.org/2000/svg"
   version="1.1"
   id="u10sil-logotype-svg"
   viewBox="0 0 170.07874 70.866138"
   height="20mm"
   width="48mm">
  <path
     style="fill:#000000;fill-opacity:1;stroke:none"
     d="m 128.63672,11.701172 0,6.1875 6.25,0 0,-6.1875 -6.25,0 z m 8.63476,0 0,6.1875 6.2793,0 0,7.724609 0,7.144531 0,10.095704 c 0,2.39032 0.1777,4.501131 0.5332,6.332031 0.356,1.78003 0.96754,3.27941 1.83204,4.5 0.9154,1.2206 2.10908,2.137747 3.58398,2.748047 1.4749,0.6103 3.33076,0.916015 5.56836,0.916015 0.9664,0 1.8854,-0.07792 2.75,-0.230468 0.9154,-0.15258 1.72755,-0.329763 2.43945,-0.533203 0.7629,-0.203441 1.42302,-0.405936 1.98242,-0.609376 0.5593,-0.254289 0.99373,-0.458748 1.29883,-0.611328 l -0.91601,-5.341796 c -0.7121,0.406869 -1.70497,0.790474 -2.97657,1.146484 -1.2205,0.35607 -2.56611,0.533203 -4.04101,0.533203 -1.9325,0 -3.38536,-0.584176 -4.35156,-1.753906 -0.9664,-1.2206 -1.44922,-3.586493 -1.44922,-7.095703 l 0,-10.095704 0,-12.486328 0,-8.570312 -12.53321,0 z m -55.187496,6.386719 c -5.5795,0 -9.955153,1.806358 -13.126953,5.417968 -3.1485,3.61162 -4.722656,8.612173 -4.722656,15.001953 0,6.366651 1.574156,11.367184 4.722656,15.001954 3.1718,3.61161 7.547453,5.417968 13.126953,5.417968 5.5564,0 9.920197,-1.806358 13.091797,-5.417968 3.1717,-3.63477 4.757813,-8.635304 4.757813,-15.001954 0,-6.38978 -1.586113,-11.390333 -4.757813,-15.001953 -3.1716,-3.61161 -7.535397,-5.417968 -13.091797,-5.417968 z m -68.560546,2.183593 0,20.826172 c 0.021,2.47756 0.227846,4.580983 0.685546,6.564453 0.4576,1.98347 1.246135,3.710667 2.365235,5.185547 1.1189,1.42404 2.567656,2.541739 4.347656,3.355469 1.78,0.76288 4.017591,1.146484 6.712891,1.146484 l 16.46289,0 0,-37.078125 -6.265625,0 0,31.738282 -9.617187,0 c -3.0515,0 -5.223797,-1.133643 -6.529297,-2.976563 -1.2884,-1.81901 -1.908203,-4.930897 -1.908203,-9.304687 l 0,-19.457032 -6.253906,0 z m 32.958984,0 0,5.341797 7.933594,0 0,26.396485 -6.751954,0 0,5.339843 21.939454,0 c -0.8715,-0.67623 -1.69816,-1.415242 -2.44336,-2.263671 l 0,-0.0078 0,-0.0039 c -0.8165,-0.94253 -1.522284,-1.972633 -2.146484,-3.064453 l -4.34375,0 0,-31.738282 -14.1875,0 z m 67.644528,0 c -4.315,0 -7.49677,0.965838 -9.54297,2.898438 -2.0017,1.88176 -3.00195,4.247653 -3.00195,7.095703 0,2.03434 0.44449,3.687524 1.33399,4.958984 0.9342,1.27146 2.06979,2.338555 3.40429,3.203125 1.379,0.86459 2.86921,1.602591 4.47071,2.212891 1.6012,0.55943 3.06794,1.143606 4.40234,1.753906 1.3791,0.61029 2.5148,1.324932 3.4043,2.138672 0.9342,0.81374 1.40039,1.857436 1.40039,3.128906 0,2.89891 -2.51267,4.347657 -7.53907,4.347657 l -13.332027,0 c -0.629,1.09311 -1.340962,2.125109 -2.164062,3.068359 l 0,0.0039 0,0.0039 c -0.7447,0.84799 -1.569154,1.589525 -2.439453,2.265624 l 18.880862,0 0,-0.0332 c 4.3533,-0.0834 7.60473,-0.923093 9.67382,-2.564453 2.17981,-1.78003 3.27149,-4.270549 3.27149,-7.474609 0,-1.98347 -0.4702,-3.613306 -1.4043,-4.884766 -0.8897,-1.32231 -2.02129,-2.440019 -3.40039,-3.355469 -1.3791,-0.915439 -2.8693,-1.676819 -4.4707,-2.287109 -1.6014,-0.66117 -3.0917,-1.29595 -4.4707,-1.90625 -1.3792,-0.61029 -2.53671,-1.274328 -3.47071,-1.986328 -0.8895,-0.76287 -1.33398,-1.678074 -1.33398,-2.746094 0,-3.00063 2.39902,-4.498047 7.20312,-4.498047 l 5.91211,0 0,-5.341796 -6.78711,0 0,-0.002 z m 9.17188,0.002 0,5.341796 5.34179,0 0,17.238282 c 0,2.39033 0.17585,4.501131 0.53126,6.332031 0.35609,1.78002 0.96948,3.27941 1.83398,4.5 0.9155,1.2206 2.10908,2.1397 3.58398,2.75 1.4747,0.6103 3.33076,0.916015 5.56836,0.916015 0.9664,0 1.88345,-0.07792 2.74805,-0.230468 0.9155,-0.15258 1.72755,-0.329763 2.43945,-0.533203 0.019,-0.002 0.0194,-0.0068 0.0274,-0.0078 -0.4937,-0.44988 -0.96058,-0.925741 -1.36328,-1.46289 l -0.0234,-0.02344 -0.0215,-0.0293 c -0.7281,-1.02816 -1.27841,-2.196937 -1.69531,-3.460937 -0.5137,0.0492 -1.02717,0.101562 -1.57617,0.101562 -1.9325,0 -3.38321,-0.586129 -4.34961,-1.755859 -0.9663,-1.22059 -1.44922,-3.586493 -1.44922,-7.095703 l 0,-22.580078 -7.73633,0 -3.85937,0 z m -41.214846,3.232421 c 3.4033,0 6.100897,1.35379 8.091797,4.0625 1.991,2.68557 2.986328,6.332324 2.986328,10.939453 0,4.630291 -0.995328,8.28905 -2.986328,10.97461 -1.9909,2.68557 -4.688497,4.027344 -8.091797,4.027344 -3.4495,0 -6.169156,-1.329768 -8.160156,-3.992188 -1.9679,-2.68557 -2.953125,-6.356335 -2.953125,-11.009766 0,-4.65342 0.995228,-8.310246 2.986328,-10.972656 1.991,-2.68557 4.700553,-4.029297 8.126953,-4.029297 z m 0.08594,10.042969 c -1.5026,0 -2.715625,0.510194 -3.640625,1.527344 -0.9248,1.01716 -1.386719,2.185512 -1.386719,3.507812 0,1.32231 0.461919,2.467274 1.386719,3.433594 0.925,0.96631 2.138025,1.449219 3.640625,1.449219 1.4449,0 2.60165,-0.482909 3.46875,-1.449219 0.9248,-0.96632 1.386719,-2.111284 1.386719,-3.433594 0,-1.3223 -0.461919,-2.490652 -1.386719,-3.507812 -0.8671,-1.01715 -2.02385,-1.527344 -3.46875,-1.527344 z"
     id="u10sil-logotype" />
</svg>
